<?xml version="1.0" encoding="UTF-8"?>
<!DOCTYPE svg PUBLIC "-//W3C//DTD SVG 1.1//EN" "http://www.w3.org/Graphics/SVG/1.1/DTD/svg11.dtd">
<!-- Creator: CorelDRAW -->
<svg xmlns="http://www.w3.org/2000/svg" xml:space="preserve" width="2048px" height="2048px" style="shape-rendering:geometricPrecision; text-rendering:geometricPrecision; image-rendering:optimizeQuality; fill-rule:evenodd; clip-rule:evenodd"
viewBox="0 0 2048 2048"
 xmlns:xlink="http://www.w3.org/1999/xlink">
 <defs>
  <style type="text/css">
   <![CDATA[
    .fil2 {fill:none}
    .fil1 {fill:#5E35B1}
    .fil0 {fill:#7E57C2}
    .fil3 {fill:#E0E0E0}
    .fil4 {fill:#F57C00}
    .fil5 {fill:#FFD180;fill-rule:nonzero}
   ]]>
  </style>
   <clipPath id="id0">
    <path d="M1024 0c565.539,0 1024,458.461 1024,1024 0,565.539 -458.461,1024 -1024,1024 -565.539,0 -1024,-458.461 -1024,-1024 0,-565.539 458.461,-1024 1024,-1024z"/>
   </clipPath>
 </defs>
 <g id="Layer_x0020_1">
  <metadata id="CorelCorpID_0Corel-Layer"/>
  <path class="fil0" d="M1024 0c565.539,0 1024,458.461 1024,1024 0,565.539 -458.461,1024 -1024,1024 -565.539,0 -1024,-458.461 -1024,-1024 0,-565.539 458.461,-1024 1024,-1024z"/>
  <g style="clip-path:url(#id0)">
   <g id="_341193616">
    <g>
     <polygon id="_3394957681" class="fil1" points="1332.32,756.466 2468.2,1892.35 2472.9,1897.98 2477.26,1903.72 2481.3,1909.55 2485.04,1915.48 2488.51,1921.48 2491.74,1927.55 2494.75,1933.68 2497.58,1939.86 2500.24,1946.08 2502.76,1952.33 2505.18,1958.6 2507.5,1964.89 2509.78,1971.18 2512.02,1977.47 1376.13,841.583 1373.89,835.297 1371.62,829.007 1369.29,822.72 1366.88,816.446 1364.36,810.194 1361.7,803.973 1358.87,797.794 1355.86,791.665 1352.63,785.595 1349.16,779.594 1345.41,773.672 1341.38,767.836 1337.02,762.099 "/>
     <polygon id="_339495216" class="fil1" points="1300.58,785.34 2436.46,1921.22 2432.19,1916.67 2427.59,1912.23 2422.62,1907.89 2417.26,1903.66 2411.49,1899.56 2405.29,1895.6 2398.64,1891.76 2391.51,1888.08 2383.88,1884.55 2375.73,1881.18 2367.03,1877.98 2357.77,1874.96 2347.92,1872.12 2337.46,1869.47 2326.36,1867.02 2314.61,1864.77 2302.18,1862.74 2289.04,1860.93 1153.16,725.052 1166.3,726.86 1178.73,728.891 1190.48,731.135 1201.58,733.584 1212.04,736.234 1221.89,739.074 1231.15,742.099 1239.85,745.299 1248,748.668 1255.63,752.199 1262.76,755.882 1269.41,759.713 1275.61,763.681 1281.38,767.781 1286.73,772.005 1291.71,776.344 1296.31,780.792 "/>
     <polygon id="_339495984" class="fil1" points="1430.09,786.357 2565.97,1922.24 2563.67,1919.76 2561.13,1917.36 2558.33,1915.05 2555.25,1912.81 2551.88,1910.67 2548.22,1908.63 2544.23,1906.68 2539.92,1904.84 2535.26,1903.11 2530.25,1901.49 2524.86,1899.99 2519.09,1898.62 2512.92,1897.37 2506.34,1896.25 2499.34,1895.28 1363.46,759.393 1370.46,760.371 1377.04,761.486 1383.21,762.733 1388.98,764.109 1394.37,765.608 1399.38,767.226 1404.04,768.957 1408.35,770.799 1412.34,772.745 1416,774.791 1419.37,776.932 1422.45,779.164 1425.25,781.482 1427.79,783.882 "/>
     <polygon id="_339496416" class="fil1" points="1376.13,841.583 2512.02,1977.47 2513.74,1982.3 2515.48,1987.12 2517.25,1991.92 2519.07,1996.68 2520.97,2001.41 2522.95,2006.09 2525.05,2010.73 2527.27,2015.31 2529.65,2019.83 2532.18,2024.28 2534.9,2028.66 2537.83,2032.95 2540.98,2037.16 2544.37,2041.27 2548.02,2045.28 1412.13,909.402 1408.48,905.389 1405.1,901.276 1401.95,897.069 1399.02,892.774 1396.3,888.399 1393.76,883.947 1391.39,879.428 1389.17,874.848 1387.07,870.211 1385.09,865.525 1383.19,860.798 1381.37,856.033 1379.59,851.238 1377.86,846.419 "/>
     <polygon id="_339496632" class="fil1" points="1527.88,997.333 2663.76,2133.22 2650.42,2131.59 2637.79,2129.71 2625.85,2127.57 2614.56,2125.19 2603.9,2122.57 2593.86,2119.72 2584.41,2116.65 2575.52,2113.36 2567.18,2109.87 2559.36,2106.19 2552.04,2102.31 2545.19,2098.25 2538.8,2094.02 2532.83,2089.62 2527.28,2085.06 2522.1,2080.36 2517.29,2075.51 1381.41,939.629 1386.22,944.476 1391.4,949.181 1396.95,953.736 1402.92,958.135 1409.31,962.368 1416.16,966.426 1423.48,970.304 1431.3,973.992 1439.64,977.482 1448.53,980.767 1457.98,983.838 1468.02,986.688 1478.68,989.307 1489.97,991.691 1501.91,993.828 1514.54,995.711 "/>
     <polygon id="_339496464" class="fil1" points="1363.46,759.393 2499.34,1895.28 2497.24,1894.91 2495.23,1894.35 2493.32,1893.6 2491.51,1892.67 2489.81,1891.59 2488.24,1890.35 2486.79,1888.96 1350.91,753.082 1352.36,754.463 1353.93,755.703 1355.63,756.792 1357.44,757.717 1359.35,758.467 1361.36,759.029 "/>
     <polygon id="_339496056" class="fil1" points="1153.16,725.052 2289.04,1860.93 2286.95,1860.57 2284.94,1860.01 2283.02,1859.26 2281.21,1858.33 2279.52,1857.24 2277.94,1856 2276.5,1854.62 1140.62,718.741 1142.06,720.122 1143.64,721.362 1145.33,722.451 1147.14,723.376 1149.06,724.126 1151.07,724.688 "/>
     <polygon id="_339496536" class="fil1" points="1547.46,940.256 2683.34,2076.14 2674.5,2075.04 2666.19,2073.75 2658.4,2072.26 2651.12,2070.57 2644.32,2068.71 2637.98,2066.66 2632.09,2064.45 2626.64,2062.07 2621.6,2059.53 2616.96,2056.84 2612.7,2054 2608.8,2051.02 2605.25,2047.91 2602.03,2044.67 1466.15,908.786 1469.37,912.026 1472.92,915.139 1476.82,918.116 1481.08,920.955 1485.72,923.646 1490.76,926.185 1496.21,928.566 1502.1,930.78 1508.44,932.824 1515.24,934.69 1522.52,936.373 1530.31,937.866 1538.62,939.161 "/>
     <polygon id="_339497064" class="fil1" points="1550.69,978.901 2686.57,2114.78 2686.24,2116.88 2685.71,2118.9 2684.99,2120.82 2684.1,2122.64 2683.04,2124.35 2681.83,2125.94 2680.47,2127.4 2678.98,2128.72 2677.38,2129.9 2675.66,2130.92 2673.85,2131.77 2671.96,2132.45 2669.99,2132.94 2667.96,2133.24 2665.88,2133.33 2663.76,2133.22 1527.88,997.333 1530,997.451 1532.08,997.357 1534.11,997.058 1536.08,996.567 1537.97,995.89 1539.78,995.037 1541.5,994.019 1543.1,992.842 1544.59,991.52 1545.94,990.057 1547.16,988.468 1548.22,986.756 1549.11,984.935 1549.83,983.013 1550.36,980.998 "/>
     <polygon id="_339497088" class="fil1" points="1576.42,1108.14 2712.3,2244.02 2712.77,2244.97 2713.18,2245.95 2713.53,2246.95 2713.83,2247.99 2714.06,2249.05 2714.23,2250.13 2714.33,2251.23 2714.37,2252.35 2714.28,2254.06 2714.04,2255.73 2713.65,2257.35 2713.12,2258.91 2712.45,2260.39 2711.65,2261.81 2710.73,2263.13 2709.7,2264.37 1573.82,1128.49 1574.85,1127.25 1575.77,1125.92 1576.57,1124.51 1577.24,1123.02 1577.77,1121.47 1578.16,1119.85 1578.4,1118.18 1578.48,1116.47 1578.45,1115.35 1578.35,1114.25 1578.18,1113.16 1577.95,1112.11 1577.65,1111.07 1577.3,1110.06 1576.89,1109.09 "/>
     <polygon id="_339496704" class="fil1" points="1573.82,1128.49 2709.7,2264.37 2709.98,2265.13 2710.22,2265.9 2710.43,2266.69 2710.6,2267.5 2710.73,2268.31 2710.83,2269.14 2710.89,2269.98 2710.91,2270.83 2710.86,2272.16 2710.71,2273.47 2710.48,2274.75 2710.15,2275.99 2709.74,2277.2 2709.24,2278.36 2708.67,2279.49 2708.02,2280.56 2707.3,2281.58 2706.51,2282.55 2705.66,2283.46 2704.75,2284.31 2703.78,2285.09 2702.75,2285.81 2701.67,2286.46 2700.55,2287.02 1564.67,1151.14 1565.79,1150.57 1566.87,1149.93 1567.89,1149.21 1568.87,1148.43 1569.78,1147.58 1570.63,1146.67 1571.42,1145.7 1572.14,1144.68 1572.79,1143.6 1573.36,1142.48 1573.86,1141.32 1574.27,1140.11 1574.6,1138.87 1574.83,1137.59 1574.98,1136.28 1575.03,1134.95 1575.01,1134.1 1574.95,1133.26 1574.85,1132.43 1574.72,1131.61 1574.55,1130.81 1574.34,1130.02 1574.1,1129.25 "/>
     <polygon id="_339497184" class="fil1" points="1564.67,1151.14 2700.55,2287.02 2700.42,2289.17 2700.36,2291.31 2700.38,2293.45 2700.49,2295.57 2700.67,2297.69 2700.95,2299.81 2701.32,2301.91 2701.78,2304.01 2702.34,2306.1 2703.01,2308.17 2703.79,2310.23 2704.68,2312.28 2705.69,2314.32 2706.82,2316.35 2708.07,2318.36 2709.46,2320.35 1573.58,1184.47 1572.19,1182.47 1570.94,1180.46 1569.81,1178.44 1568.8,1176.4 1567.91,1174.35 1567.13,1172.29 1566.46,1170.21 1565.9,1168.13 1565.43,1166.03 1565.07,1163.93 1564.79,1161.81 1564.61,1159.69 1564.5,1157.56 1564.48,1155.43 1564.54,1153.29 "/>
     <polygon id="_339497232" class="fil1" points="1573.58,1184.47 2709.46,2320.35 2709.46,2340.24 1573.58,1204.35 "/>
     <polygon id="_339497304" class="fil1" points="1573.58,1204.35 2709.46,2340.24 2685.07,2340.24 1549.19,1204.35 "/>
     <polygon id="_339496920" class="fil1" points="1549.19,1204.35 2685.07,2340.24 1946.12,2340.24 810.243,1204.35 "/>
     <polygon id="_339497424" class="fil1" points="810.243,1204.35 1946.12,2340.24 1624.27,2340.24 488.386,1204.35 "/>
     <polygon id="_339496848" class="fil1" points="488.386,1204.35 1624.27,2340.24 1599.88,2340.24 463.999,1204.35 "/>
     <polygon id="_339496992" class="fil1" points="1485.94,833.234 2621.82,1969.12 2622,1971.93 2622.18,1974.73 2622.38,1977.52 2622.62,1980.29 2622.9,1983.04 2623.24,1985.76 2623.64,1988.45 2624.12,1991.11 2624.69,1993.73 2625.36,1996.31 2626.14,1998.85 2627.04,2001.34 2628.07,2003.77 2629.25,2006.15 2630.58,2008.47 2632.08,2010.72 2633.76,2012.91 2635.62,2015.02 1499.74,879.141 1497.88,877.028 1496.2,874.842 1494.7,872.588 1493.37,870.27 1492.19,867.892 1491.16,865.457 1490.26,862.97 1489.48,860.433 1488.81,857.852 1488.24,855.229 1487.76,852.569 1487.36,849.876 1487.02,847.153 1486.74,844.405 1486.5,841.635 1486.3,838.848 1486.12,836.046 "/>
     <polygon id="_339498048" class="fil1" points="1544.88,962.187 2680.76,2098.07 2682.08,2099.56 2683.26,2101.16 2684.28,2102.88 2685.13,2104.69 2685.81,2106.58 2686.3,2108.55 2686.6,2110.58 2686.69,2112.66 2686.57,2114.78 1550.69,978.901 1550.81,976.781 1550.72,974.7 1550.42,972.669 1549.93,970.7 1549.25,968.805 1548.4,966.995 1547.38,965.28 1546.2,963.674 "/>
     <polygon id="_339497904" class="fil1" points="1573.58,1032.74 2709.46,2168.62 2709.46,2188.51 1573.58,1052.63 "/>
     <polygon id="_339498000" class="fil1" points="1576.37,1055.35 2712.25,2191.23 2713.47,2192.64 2714.56,2194.08 2715.54,2195.55 2716.41,2197.04 2717.18,2198.57 2717.84,2200.13 2718.4,2201.71 2718.86,2203.32 2719.24,2204.95 2719.52,2206.61 2719.72,2208.3 2719.84,2210 2719.88,2211.74 2719.85,2213.49 2719.75,2215.27 2719.58,2217.06 2719.34,2218.88 2719.05,2220.71 2718.71,2222.57 2718.31,2224.44 2717.86,2226.33 2717.37,2228.24 2716.84,2230.16 2716.28,2232.1 2715.68,2234.06 2715.04,2236.02 2714.39,2238.01 2713.71,2240 2713.01,2242 2712.3,2244.02 1576.42,1108.14 1577.13,1106.12 1577.83,1104.12 1578.51,1102.12 1579.16,1100.14 1579.79,1098.17 1580.39,1096.22 1580.96,1094.28 1581.49,1092.36 1581.98,1090.45 1582.43,1088.56 1582.83,1086.69 1583.17,1084.83 1583.46,1083 1583.7,1081.18 1583.86,1079.38 1583.97,1077.61 1584,1075.85 1583.96,1074.12 1583.84,1072.41 1583.64,1070.73 1583.36,1069.07 1582.98,1067.44 1582.52,1065.83 1581.96,1064.24 1581.3,1062.69 1580.53,1061.16 1579.66,1059.66 1578.68,1058.2 1577.59,1056.76 "/>
     <polygon id="_339497952" class="fil1" points="1464.86,758.477 2600.74,1894.36 2603.73,1898.21 2606.4,1902.17 2608.77,1906.22 2610.86,1910.36 2612.7,1914.59 2614.3,1918.89 2615.68,1923.26 2616.86,1927.69 2617.86,1932.17 2618.71,1936.7 2619.41,1941.27 2620,1945.87 2620.48,1950.5 2620.89,1955.15 2621.23,1959.8 2621.54,1964.46 2621.82,1969.12 1485.94,833.234 1485.66,828.578 1485.35,823.919 1485.01,819.263 1484.6,814.618 1484.12,809.99 1483.53,805.387 1482.83,800.818 1481.98,796.287 1480.98,791.803 1479.8,787.373 1478.42,783.004 1476.82,778.704 1474.98,774.478 1472.89,770.336 1470.52,766.283 1467.85,762.328 "/>
     <polygon id="_339497544" class="fil1" points="1570.28,921.824 2706.16,2057.71 2705.83,2059.8 2705.3,2061.82 2704.58,2063.74 2703.69,2065.56 2702.63,2067.27 2701.41,2068.86 2700.06,2070.33 2698.57,2071.65 2696.96,2072.82 2695.25,2073.84 2693.44,2074.7 2691.54,2075.37 2689.57,2075.86 2687.54,2076.16 2685.46,2076.26 2683.34,2076.14 1547.46,940.256 1549.58,940.374 1551.66,940.28 1553.69,939.981 1555.66,939.49 1557.56,938.813 1559.37,937.96 1561.08,936.942 1562.69,935.767 1564.18,934.443 1565.53,932.982 1566.75,931.391 1567.81,929.681 1568.7,927.859 1569.42,925.937 1569.95,923.922 "/>
     <polygon id="_339498120" class="fil1" points="1564.47,905.111 2700.35,2040.99 2701.67,2042.48 2702.85,2044.09 2703.86,2045.8 2704.72,2047.61 2705.39,2049.51 2705.89,2051.47 2706.18,2053.51 2706.28,2055.59 2706.16,2057.71 1570.28,921.824 1570.4,919.704 1570.3,917.623 1570.01,915.592 1569.51,913.624 1568.84,911.728 1567.98,909.918 1566.96,908.203 1565.79,906.597 "/>
    </g>
    <path id="_341193712" class="fil1" d="M1158.2 683.802c169.402,21.2835 194.121,90.7997 217.936,157.781 18.3638,51.6508 36.0697,101.449 156.126,114.5 11.3906,1.21063 19.6429,11.4272 18.4323,22.8177 -1.21063,11.3906 -11.4272,19.6441 -22.8177,18.4323 -146.056,-15.8776 -168.059,-77.7591 -190.88,-141.946 -19.5839,-55.0831 -39.9118,-112.253 -183.832,-130.335 -11.3906,-1.39016 -19.4977,-11.752 -18.1075,-23.1425 1.39016,-11.3906 11.752,-19.4988 23.1425,-18.1075zm-347.955 348.936l738.945 0 24.3874 0 0 19.8874c16.2638,14.1721 10.4976,33.9437 2.84646,55.513 1.31575,2.48504 2.06221,5.31969 2.06221,8.32796 0,4.63229 -1.76811,8.85119 -4.663,12.0213 0.779528,2.00315 1.20709,4.18111 1.20709,6.46063 0,7.17993 -4.2437,13.3677 -10.3618,16.1929 -0.870473,11.4543 1.18465,22.7351 8.90906,33.326l0 19.8874 -24.3874 0 -738.945 0 -321.857 0 -24.3874 0 0 -19.8874 0 -131.842 0 -19.8874 24.3874 0 321.857 0zm760.038 -110.914c-1.21063,11.3917 -11.4284,19.6441 -22.8189,18.4323 -97.245,-10.5721 -100.037,-56.7248 -102.93,-104.586 -1.97599,-32.6811 -4.02756,-66.5989 -81.0745,-76.278 -11.3906,-1.39016 -19.4977,-11.752 -18.1075,-23.1425 1.39016,-11.3906 11.752,-19.4977 23.1425,-18.1075 111.339,13.9878 114.452,65.4768 117.451,115.091 1.81536,30.0343 3.56811,58.9961 65.9044,65.7733 11.3906,1.20945 19.6429,11.426 18.4323,22.8166z"/>
   </g>
  </g>
  <path class="fil2" d="M1024 0c565.539,0 1024,458.461 1024,1024 0,565.539 -458.461,1024 -1024,1024 -565.539,0 -1024,-458.461 -1024,-1024 0,-565.539 458.461,-1024 1024,-1024z"/>
  <g id="_332919576">
   <path id="_332920560" class="fil3" d="M488.386 1032.74l1060.8 0 24.3874 0 0 19.8874c16.2638,14.1721 10.4976,33.9437 2.84646,55.513 1.31575,2.48504 2.06221,5.31969 2.06221,8.32796 0,4.63229 -1.76811,8.85119 -4.663,12.0213 0.779528,2.00315 1.20709,4.18111 1.20709,6.46063 0,7.17993 -4.2437,13.3677 -10.3618,16.1929 -0.870473,11.4543 1.18465,22.7351 8.90906,33.326l0 19.8874 -24.3874 0 -1060.8 0 -24.3874 0 0 -19.8874 0 -131.842 0 -19.8874 24.3874 0z"/>
   <polygon id="_332919648" class="fil4" points="488.386,1032.74 810.243,1032.74 810.243,1204.35 488.386,1204.35 463.999,1204.35 463.999,1184.47 463.999,1052.63 463.999,1032.74 "/>
   <path id="_332919432" class="fil5" d="M1527.88 997.333c11.3906,1.21063 21.6071,-7.04174 22.8177,-18.4323 1.21063,-11.3906 -7.04174,-21.6071 -18.4323,-22.8177 -120.057,-13.0512 -137.763,-62.8489 -156.126,-114.5 -23.8146,-66.9804 -48.5327,-136.498 -217.936,-157.781 -11.3906,-1.39016 -21.7524,6.71693 -23.1425,18.1075 -1.39016,11.3906 6.71693,21.7524 18.1075,23.1425 143.919,18.0815 164.248,75.2516 183.832,130.336 22.8213,64.1859 44.8241,126.067 190.88,141.945z"/>
   <path id="_332919600" class="fil5" d="M1547.46 940.256c11.3906,1.21181 21.6071,-7.04174 22.8177,-18.4323 1.21063,-11.3906 -7.04174,-21.6071 -18.4323,-22.8177 -62.3363,-6.77599 -64.089,-35.7378 -65.9044,-65.7721 -2.99882,-49.6146 -6.11221,-101.104 -117.451,-115.091 -11.3906,-1.39016 -21.7524,6.71693 -23.1425,18.1075 -1.39016,11.3906 6.71693,21.7524 18.1075,23.1425 77.0469,9.67914 79.0985,43.5969 81.0733,76.278 2.8937,47.8607 5.68583,94.0146 102.932,104.586z"/>
  </g>
 </g>
</svg>
