<svg id="Layer_1" data-name="Layer 1" xmlns="http://www.w3.org/2000/svg" viewBox="0 0 512 512"><defs><style>.cls-1{fill:#fabc3d;}.cls-2{fill:#48a1af;}.cls-3{fill:#e3ebee;}.cls-4{fill:#f7fbfc;}.cls-5{fill:#5cb6bf;}.cls-6{fill:#abd6d6;}.cls-7{fill:#bfe2e1;}.cls-8{fill:#9cc9d3;}.cls-9{fill:#b9e4ea;}</style></defs><title>bottle_1</title><path class="cls-1" d="M504.08,256C504.08,119,393,7.92,256,7.92S7.92,119,7.92,256,119,504.08,256,504.08,504.08,393,504.08,256Z"/><rect class="cls-2" x="236.46" y="62.42" width="39.16" height="7.78" rx="2.29" ry="2.29"/><path class="cls-3" d="M313.75,180.71c0-60.37-39.22-98.63-39.22-98.63-2.06-3.6-1.54-28.66-1.54-28.66H239s.51,25.06-1.54,28.66c0,0-39.22,39-39.22,98.63s7.14,67,7.14,95.1c0,10.75-7.61,23-7.61,59.28v107.3s5,26.67,58.23,26.67h0c53.24,0,58.23-26.67,58.23-26.67V335.09c0-35.35-7.61-48.53-7.61-59.28C306.61,247,313.75,241.08,313.75,180.71Z"/><path class="cls-4" d="M256,53.42H239s.51,25.06-1.54,28.66c0,0-39.22,39-39.22,98.63s7.14,67,7.14,95.1c0,10.75-7.61,23-7.61,59.28v107.3s5,26.67,58.23,26.67h0Z"/><rect class="cls-2" x="234.99" y="66.63" width="42.11" height="8.37" rx="2.46" ry="2.46"/><path class="cls-5" d="M256,75H237.45A2.46,2.46,0,0,1,235,72.54V69.09a2.46,2.46,0,0,1,2.46-2.46H256Z"/><path class="cls-6" d="M274.47,81.95a10.31,10.31,0,0,1-.69-2.7H238.21a11.13,11.13,0,0,1-.64,2.6v.1Z"/><path class="cls-7" d="M256,79.25H238.21a11.13,11.13,0,0,1-.64,2.6v.1H256Z"/><rect class="cls-2" x="233.85" y="72.59" width="44.38" height="2.42" rx="0.71" ry="0.71"/><path class="cls-5" d="M256,72.59H234.56a.71.71,0,0,0-.71.71v1a.71.71,0,0,0,.71.71H256Z"/><path class="cls-2" d="M270.15,49.39H241.94c-7.72,0-7,5.66-7,5.66v8.88c0,.88.26,1.16,1.2,1.16h39.62c1.07,0,1.29-.47,1.29-1.27V55S277.87,49.39,270.15,49.39Z"/><path class="cls-5" d="M256,49.39h-14c-7.72,0-7,5.66-7,5.66v8.88c0,.88.26,1.16,1.2,1.16H256Z"/><path class="cls-8" d="M313.75,180.71c0-36.88-14.64-65.52-26-82.21l-63.18-.2c-11.43,16.78-26.3,45.67-26.3,82.41,0,59.68,7.14,67,7.14,95.1,0,10.75-7.61,23-7.61,59.28v107.3s5,26.67,58.23,26.67h0c53.24,0,58.23-26.67,58.23-26.67V335.09c0-35.35-7.61-48.53-7.61-59.28C306.61,247,313.75,241.08,313.75,180.71Z"/><path class="cls-9" d="M255.9,98.4l-31.35-.1c-11.43,16.78-26.3,45.67-26.3,82.41,0,59.68,7.14,67,7.14,95.1,0,10.75-7.61,23-7.61,59.28v107.3s5,26.67,58.23,26.67h0Z"/></svg>